<svg width="1312" height="370" viewBox="0 0 1312 370" fill="none" xmlns="http://www.w3.org/2000/svg">
<g clip-path="url(#clip0_23_594)">
<path d="M94.7113 47.6444C94.7113 21.3311 73.5095 0 47.3556 0C21.2018 0 0 21.3311 0 47.6444V322.356C0 348.669 21.2018 370 47.3556 370C73.5095 370 94.7113 348.669 94.7113 322.356V47.6444Z" fill="#750FF7"/>
<path d="M188.426 47.1429C188.426 21.1066 167.447 0 141.569 0C115.69 0 94.7114 21.1066 94.7114 47.1429V322.857C94.7114 348.893 115.69 370 141.569 370C167.447 370 188.426 348.893 188.426 322.857V47.1429Z" fill="#750FF7"/>
<path d="M283.137 47.6444C283.137 21.3311 261.935 0 235.781 0C209.627 0 188.426 21.3311 188.426 47.6444V322.356C188.426 348.669 209.627 370 235.781 370C261.935 370 283.137 348.669 283.137 322.356V47.6444Z" fill="#750FF7"/>
<path d="M329.495 0H329.495C303.892 0 283.137 20.882 283.137 46.6413V323.359C283.137 349.118 303.892 370 329.495 370C355.099 370 375.854 349.118 375.854 323.359V46.6413C375.854 20.882 355.099 0 329.495 0Z" fill="#750FF7"/>
<path d="M469.569 47.1429C469.569 21.1066 448.59 0 422.711 0C396.833 0 375.854 21.1066 375.854 47.1429V322.857C375.854 348.893 396.833 370 422.711 370C448.59 370 469.569 348.893 469.569 322.857V47.1429Z" fill="#750FF7"/>
<path d="M563.283 47.1429C563.283 21.1066 542.304 0 516.426 0C490.547 0 469.568 21.1066 469.568 47.1429V322.857C469.568 348.893 490.547 370 516.426 370C542.304 370 563.283 348.893 563.283 322.857V47.1429Z" fill="#750FF7"/>
<path d="M656.997 47.1429C656.997 21.1066 636.018 0 610.14 0C584.261 0 563.283 21.1066 563.283 47.1429V322.857C563.283 348.893 584.261 370 610.14 370C636.018 370 656.997 348.893 656.997 322.857V47.1429Z" fill="#750FF7"/>
<path d="M750.711 47.1429C750.711 21.1066 729.732 0 703.854 0C677.975 0 656.997 21.1066 656.997 47.1429V322.857C656.997 348.893 677.975 370 703.854 370C729.732 370 750.711 348.893 750.711 322.857V47.1429Z" fill="#750FF7"/>
<path d="M844.425 47.1429C844.425 21.1066 823.447 0 797.568 0C771.69 0 750.711 21.1066 750.711 47.1429V322.857C750.711 348.893 771.69 370 797.568 370C823.447 370 844.425 348.893 844.425 322.857V47.1429Z" fill="#750FF7"/>
<path d="M890.784 0H890.784C865.181 0 844.425 20.882 844.425 46.6413V323.359C844.425 349.118 865.181 370 890.784 370C916.387 370 937.143 349.118 937.143 323.359V46.6413C937.143 20.882 916.387 0 890.784 0Z" fill="#750FF7"/>
<path d="M1030.86 47.1429C1030.86 21.1066 1009.88 0 984 0C958.121 0 937.143 21.1066 937.143 47.1429V322.857C937.143 348.893 958.121 370 984 370C1009.88 370 1030.86 348.893 1030.86 322.857V47.1429Z" fill="#750FF7"/>
<path d="M1124.57 47.1429C1124.57 21.1066 1103.59 0 1077.71 0C1051.84 0 1030.86 21.1066 1030.86 47.1429V322.857C1030.86 348.893 1051.84 370 1077.71 370C1103.59 370 1124.57 348.893 1124.57 322.857V47.1429Z" fill="#750FF7"/>
<path d="M1218.29 47.1429C1218.29 21.1066 1197.31 0 1171.43 0C1145.55 0 1124.57 21.1066 1124.57 47.1429V322.857C1124.57 348.893 1145.55 370 1171.43 370C1197.31 370 1218.29 348.893 1218.29 322.857V47.1429Z" fill="#750FF7"/>
<path d="M1312 47.1429C1312 21.1066 1291.02 0 1265.14 0C1239.26 0 1218.29 21.1066 1218.29 47.1429V322.857C1218.29 348.893 1239.26 370 1265.14 370C1291.02 370 1312 348.893 1312 322.857V47.1429Z" fill="#750FF7"/>
</g>
<defs>
<clipPath id="clip0_23_594">
<rect width="1312" height="370" fill="white"/>
</clipPath>
</defs>
</svg>
