<svg width="69" height="69" viewBox="0 0 69 69" fill="none" xmlns="http://www.w3.org/2000/svg">
<mask id="mask0_23_537" style="mask-type:luminance" maskUnits="userSpaceOnUse" x="12" y="13" width="56" height="50">
<path d="M63.3636 16.5021C62.7615 16.355 62.2 16.259 61.645 16.1865C61.0899 16.114 60.5413 16.0652 59.965 16.0127C59.3595 15.9576 58.737 15.907 58.1324 15.8535C57.5277 15.7999 56.9408 15.7433 56.4062 15.676C56.242 15.6553 56.0463 15.6625 55.8448 15.6717C55.6433 15.6808 55.4361 15.6919 55.2485 15.6791C53.3296 15.5481 51.4794 15.4292 49.648 15.3102C47.8165 15.1912 46.0035 15.0721 44.1588 14.9404C43.0707 14.8628 41.9332 14.8024 40.8049 14.7285C39.6766 14.6546 38.5575 14.5669 37.5065 14.4347C37.3423 14.4139 37.1466 14.4212 36.9451 14.4303C36.7436 14.4395 36.5364 14.4506 36.3488 14.4378C33.3479 14.2329 30.5031 14.0142 27.6671 13.8332C24.8312 13.6521 22.0039 13.5087 19.0385 13.4541C18.48 13.4438 17.961 13.4237 17.4693 13.4266C16.9777 13.4296 16.5134 13.4557 16.064 13.5383C15.5416 13.6344 15.0931 13.7863 14.6977 14.0186C14.3024 14.251 13.9604 14.5638 13.651 14.9816C13.1963 15.5956 13.0103 16.3043 12.9764 16.9849C12.9424 17.6655 13.0605 18.318 13.2136 18.8195C13.2696 19.0025 13.3174 19.1664 13.3636 19.3207C13.4097 19.4751 13.4542 19.62 13.5035 19.7652C13.7138 20.3839 13.9674 20.9819 14.2268 21.5609C14.4862 22.1399 14.751 22.7 14.9835 23.2429C15.07 23.4447 15.1312 23.6489 15.1915 23.8505C15.2517 24.0521 15.3107 24.251 15.3924 24.4419C15.4755 24.6358 15.5664 24.8293 15.658 25.0199C15.7496 25.2106 15.842 25.3985 15.9279 25.5813C16.3265 26.4292 16.8374 27.5264 17.3894 28.6234C17.9413 29.7205 18.5342 30.8176 19.0968 31.6657C19.1266 31.7107 19.1713 31.7355 19.2168 31.7609C19.2625 31.7863 19.309 31.8121 19.3424 31.8594C19.3712 31.9002 19.3774 31.9662 19.384 32.0322C19.3906 32.0982 19.3976 32.1643 19.4278 32.2057C19.4875 32.2872 19.5646 32.3628 19.6454 32.4402C19.7262 32.5176 19.8108 32.597 19.8855 32.6861C20.1086 32.9528 20.3261 33.2224 20.5665 33.4633C20.8068 33.7042 21.0703 33.9164 21.3851 34.068C21.9091 34.3203 22.4775 34.441 23.048 34.4836C23.6186 34.5261 24.1913 34.4906 24.7242 34.4307C25.2574 34.3707 25.7872 34.2712 26.2885 34.1594C26.7897 34.0476 27.2623 33.9235 27.6804 33.8142C27.7616 33.7929 27.8678 33.7621 27.9597 33.7338C28.0516 33.7055 28.1292 33.6799 28.1532 33.6692C28.3253 33.5928 28.5094 33.5346 28.6884 33.4925C28.8674 33.4505 29.0411 33.4246 29.192 33.4128C29.2631 33.4074 29.3631 33.3552 29.4586 33.3008C29.5542 33.2464 29.6451 33.1895 29.6984 33.1748C29.9691 33.1 30.214 33.0257 30.446 32.9529C30.678 32.8801 30.8973 32.8088 31.1169 32.74C31.1729 32.7224 31.2335 32.708 31.2931 32.6944C31.3526 32.6809 31.4112 32.6683 31.4632 32.6545C31.6778 32.5977 31.8606 32.5388 32.0325 32.4798C32.2043 32.421 32.3652 32.362 32.5355 32.3051C32.8376 32.2042 33.2429 32.1241 33.4477 32.1082C33.4811 32.1056 33.5673 31.9672 33.6078 31.9557C34.0142 31.84 34.2934 31.8087 34.6466 31.6993C35.0002 31.5897 35.3839 31.4082 35.6259 31.3163C35.7616 31.2648 35.9263 31.3083 36.0652 31.2644C36.3554 31.1726 36.6396 31.053 36.8843 31.034C36.9162 31.0315 37.0058 30.8937 37.0444 30.8814C37.5514 30.7205 38.0669 30.5515 38.463 30.4466C38.9073 30.3289 39.1492 30.223 39.5353 30.0972C40.0181 29.9397 40.6289 29.7283 41.0469 29.6958C41.0811 29.6931 41.1655 29.5543 41.2071 29.5433C41.3376 29.5086 41.4964 29.5376 41.6464 29.4914C42.4252 29.2511 44.0999 28.4612 44.5278 29.3736C44.7476 29.8421 44.4139 30.2113 43.9651 30.6428C43.7396 30.8596 43.1701 31.2433 42.9782 31.3385C42.7952 31.4294 42.6992 31.5414 42.5649 31.61C42.2514 31.7704 41.8913 31.9611 41.6451 32.1196C41.3022 32.3405 40.9023 32.6941 40.6583 32.8153C40.4752 32.9062 40.3792 33.0182 40.2449 33.0868C39.9253 33.2504 39.5877 33.4273 39.3252 33.5964C39.1374 33.7174 38.9461 33.8948 38.7517 34.0205C38.3249 34.2963 37.9102 34.5115 37.5451 34.7422C35.7735 35.8614 33.9438 37.0037 32.2386 38.0863C32.0354 38.2154 31.8754 38.3768 31.6651 38.5104C31.4766 38.6303 31.2323 38.6798 31.0321 38.808C30.9427 38.8652 30.9196 39.0024 30.8384 39.0536C30.7493 39.1098 30.5827 39.0813 30.4922 39.139C30.4492 39.1664 30.4613 39.2877 30.4251 39.3251C30.3268 39.4266 30.0082 39.502 29.9187 39.5631C28.7785 40.3405 27.3604 41.3062 26.6561 42.4876C25.8202 43.8899 25.8423 45.141 26.0662 46.1654C26.1083 46.3583 26.2158 46.5434 26.2706 46.7649C26.3212 46.9689 26.2899 47.2085 26.3485 47.4238C26.4032 47.6252 26.4981 47.8416 26.553 48.0233C26.6904 48.4785 26.8365 48.8909 26.9619 49.2222C27.2606 50.0109 27.5625 50.8289 27.9063 51.5605C29.0654 54.0266 29.7158 55.7901 31.179 58.5236C31.5417 59.2013 31.9793 59.9691 32.5032 60.6834C33.0524 61.4323 33.7249 62.1884 34.8067 62.4603C36.6194 62.9158 38.6835 61.2081 40.0385 59.6149C40.7673 58.7581 41.3934 57.8244 42.0427 56.9727C42.8844 55.8685 43.8797 54.6494 44.5943 53.6868C44.765 53.4569 44.8998 53.1641 45.0824 52.9164C51.879 43.6955 58.4165 34.8229 64.9936 25.3964C65.647 24.4599 66.4315 23.4712 66.8787 22.5011C67.4613 21.237 67.4871 20.4193 67.2933 19.6013C67.1821 19.1322 67.0457 18.7398 66.8508 18.4954C66.7855 18.4135 66.7835 18.3065 66.7318 18.2422C66.021 17.3596 64.4133 16.7584 63.3636 16.5021Z" fill="white"/>
</mask>
<g mask="url(#mask0_23_537)">
<path d="M107.62 0.493373L7.12329 -35.74L-29.1101 64.7562L71.3861 100.99L107.62 0.493373Z" fill="#0FB0F7"/>
</g>
</svg>
