<svg width="325" height="450" viewBox="0 0 325 450" fill="none" xmlns="http://www.w3.org/2000/svg">
<path d="M102.52 113.641L102.603 113.829L102.792 113.747L144.324 95.5693C152.77 91.8731 156.619 82.0305 152.923 73.5852L143.008 50.9311C139.312 42.4858 129.469 38.6359 121.024 42.3321L94.5944 53.8995C86.1491 57.5957 82.2992 67.4383 85.9954 75.8836L102.52 113.641Z" fill="#750FF7"/>
<path d="M102.52 113.641L102.603 113.829L102.792 113.747L144.324 95.5693C152.77 91.8731 156.619 82.0305 152.923 73.5852L143.008 50.9311C139.312 42.4858 129.469 38.6359 121.024 42.3321L94.5944 53.8995C86.1491 57.5957 82.2992 67.4383 85.9954 75.8836L102.52 113.641Z" stroke="white" stroke-width="0.412147"/>
<path d="M249.985 180.504L223.357 153.345L261.021 169.683L234.393 142.525L272.057 158.863L245.429 131.705L283.093 148.043L256.465 120.884L294.129 137.222L267.502 110.064" stroke="#FFBA03" stroke-width="18.9588" stroke-linecap="round" stroke-linejoin="round"/>
<mask id="mask0_23_529" style="mask-type:luminance" maskUnits="userSpaceOnUse" x="192" y="201" width="133" height="133">
<path d="M324.681 236.23L227.752 201.283L192.805 298.212L289.734 333.16L324.681 236.23Z" fill="white"/>
</mask>
<g mask="url(#mask0_23_529)">
<mask id="mask1_23_529" style="mask-type:luminance" maskUnits="userSpaceOnUse" x="232" y="248" width="56" height="50">
<path d="M283.364 251.502C282.761 251.355 282.2 251.259 281.645 251.187C281.09 251.114 280.541 251.065 279.965 251.013C279.359 250.958 278.737 250.907 278.132 250.853C277.528 250.8 276.941 250.743 276.406 250.676C276.242 250.655 276.046 250.663 275.845 250.672C275.643 250.681 275.436 250.692 275.248 250.679C273.33 250.548 271.479 250.429 269.648 250.31C267.816 250.191 266.003 250.072 264.159 249.94C263.071 249.863 261.933 249.802 260.805 249.729C259.677 249.655 258.558 249.567 257.507 249.435C257.342 249.414 257.147 249.421 256.945 249.43C256.744 249.439 256.536 249.451 256.349 249.438C253.348 249.233 250.503 249.014 247.667 248.833C244.831 248.652 242.004 248.509 239.039 248.454C238.48 248.444 237.961 248.424 237.469 248.427C236.978 248.43 236.513 248.456 236.064 248.538C235.542 248.634 235.093 248.786 234.698 249.019C234.302 249.251 233.96 249.564 233.651 249.982C233.196 250.596 233.01 251.304 232.976 251.985C232.942 252.665 233.06 253.318 233.214 253.819C233.27 254.003 233.317 254.166 233.364 254.321C233.41 254.475 233.454 254.62 233.504 254.765C233.714 255.384 233.967 255.982 234.227 256.561C234.486 257.14 234.751 257.7 234.983 258.243C235.07 258.445 235.131 258.649 235.191 258.85C235.252 259.052 235.311 259.251 235.392 259.442C235.475 259.636 235.566 259.829 235.658 260.02C235.75 260.211 235.842 260.398 235.928 260.581C236.326 261.429 236.837 262.526 237.389 263.623C237.941 264.72 238.534 265.818 239.097 266.666C239.127 266.711 239.171 266.736 239.217 266.761C239.262 266.786 239.309 266.812 239.342 266.859C239.371 266.9 239.377 266.966 239.384 267.032C239.391 267.098 239.398 267.164 239.428 267.206C239.487 267.287 239.565 267.363 239.645 267.44C239.726 267.518 239.811 267.597 239.886 267.686C240.109 267.953 240.326 268.222 240.566 268.463C240.807 268.704 241.07 268.916 241.385 269.068C241.909 269.32 242.477 269.441 243.048 269.484C243.619 269.526 244.191 269.491 244.724 269.431C245.257 269.371 245.787 269.271 246.289 269.159C246.79 269.048 247.262 268.923 247.68 268.814C247.762 268.793 247.868 268.762 247.96 268.734C248.052 268.706 248.129 268.68 248.153 268.669C248.325 268.593 248.509 268.535 248.688 268.492C248.867 268.45 249.041 268.425 249.192 268.413C249.263 268.407 249.363 268.355 249.459 268.301C249.554 268.246 249.645 268.189 249.698 268.175C249.969 268.1 250.214 268.026 250.446 267.953C250.678 267.88 250.897 267.809 251.117 267.74C251.173 267.722 251.234 267.708 251.293 267.694C251.353 267.681 251.411 267.668 251.463 267.654C251.678 267.598 251.861 267.539 252.032 267.48C252.204 267.421 252.365 267.362 252.536 267.305C252.838 267.204 253.243 267.124 253.448 267.108C253.481 267.106 253.567 266.967 253.608 266.956C254.014 266.84 254.293 266.809 254.647 266.699C255 266.59 255.384 266.408 255.626 266.316C255.762 266.265 255.926 266.308 256.065 266.264C256.355 266.173 256.64 266.053 256.884 266.034C256.916 266.032 257.006 265.894 257.044 265.881C257.551 265.721 258.067 265.552 258.463 265.447C258.907 265.329 259.149 265.223 259.535 265.097C260.018 264.94 260.629 264.728 261.047 264.696C261.081 264.693 261.165 264.554 261.207 264.543C261.338 264.509 261.496 264.538 261.646 264.491C262.425 264.251 264.1 263.461 264.528 264.374C264.748 264.842 264.414 265.211 263.965 265.643C263.74 265.86 263.17 266.243 262.978 266.338C262.795 266.429 262.699 266.541 262.565 266.61C262.251 266.77 261.891 266.961 261.645 267.12C261.302 267.341 260.902 267.694 260.658 267.815C260.475 267.906 260.379 268.018 260.245 268.087C259.925 268.25 259.588 268.427 259.325 268.596C259.137 268.717 258.946 268.895 258.752 269.021C258.325 269.296 257.91 269.512 257.545 269.742C255.774 270.861 253.944 272.004 252.239 273.086C252.035 273.215 251.875 273.377 251.665 273.51C251.477 273.63 251.232 273.68 251.032 273.808C250.943 273.865 250.92 274.002 250.838 274.054C250.749 274.11 250.583 274.081 250.492 274.139C250.449 274.166 250.461 274.288 250.425 274.325C250.327 274.427 250.008 274.502 249.919 274.563C248.778 275.341 247.36 276.306 246.656 277.488C245.82 278.89 245.842 280.141 246.066 281.165C246.108 281.358 246.216 281.543 246.271 281.765C246.321 281.969 246.29 282.208 246.349 282.424C246.403 282.625 246.498 282.842 246.553 283.023C246.69 283.478 246.836 283.891 246.962 284.222C247.261 285.011 247.562 285.829 247.906 286.561C249.065 289.027 249.716 290.79 251.179 293.524C251.542 294.201 251.979 294.969 252.503 295.683C253.052 296.432 253.725 297.188 254.807 297.46C256.619 297.916 258.684 296.208 260.039 294.615C260.767 293.758 261.393 292.824 262.043 291.973C262.884 290.869 263.88 289.649 264.594 288.687C264.765 288.457 264.9 288.164 265.082 287.916C271.879 278.695 278.417 269.823 284.994 260.396C285.647 259.46 286.432 258.471 286.879 257.501C287.461 256.237 287.487 255.419 287.293 254.601C287.182 254.132 287.046 253.74 286.851 253.495C286.786 253.413 286.784 253.306 286.732 253.242C286.021 252.36 284.413 251.758 283.364 251.502Z" fill="white"/>
</mask>
<g mask="url(#mask1_23_529)">
<path d="M327.62 235.493L227.123 199.26L190.89 299.756L291.386 335.99L327.62 235.493Z" fill="#0FB0F7"/>
</g>
</g>
<path d="M103.303 343.504C103.303 325.514 117.886 310.931 135.876 310.931C153.866 310.931 165.037 325.514 165.037 343.504C165.037 361.494 161.562 376.36 143.572 376.36C125.583 376.36 103.303 361.494 103.303 343.504Z" fill="#7F43FF"/>
<path fill-rule="evenodd" clip-rule="evenodd" d="M159.729 310.728C161.101 310.114 162.466 309.513 163.821 308.86C164.969 308.306 165.449 306.922 164.895 305.775C164.341 304.627 162.96 304.147 161.812 304.701C160.496 305.336 159.171 305.918 157.838 306.516C156.674 307.038 156.155 308.405 156.677 309.569C157.199 310.73 158.566 311.25 159.729 310.728Z" fill="#7F43FF"/>
<path fill-rule="evenodd" clip-rule="evenodd" d="M150.617 302.664C152.594 298.383 154.353 294.005 156.237 289.685C156.748 288.516 156.212 287.154 155.044 286.643C153.875 286.135 152.515 286.669 152.005 287.837C150.132 292.128 148.389 296.476 146.424 300.727C145.89 301.884 146.396 303.258 147.553 303.791C148.71 304.327 150.083 303.821 150.617 302.664Z" fill="#7F43FF"/>
<path fill-rule="evenodd" clip-rule="evenodd" d="M133.837 300.554C133.206 296.635 132.465 292.726 131.881 288.8C131.692 287.542 130.516 286.671 129.255 286.858C127.995 287.048 127.124 288.223 127.311 289.484C127.902 293.425 128.643 297.351 129.276 301.288C129.479 302.547 130.664 303.403 131.922 303.2C133.181 302.999 134.04 301.812 133.837 300.554Z" fill="#7F43FF"/>
<path d="M-5.3622 335.331C-11.067 335.331 -15.7589 330.994 -16.3209 325.438C-20.6474 328.969 -27.0316 328.718 -31.0655 324.684C-35.0994 320.65 -35.3505 314.266 -31.8189 309.94C-37.3754 309.378 -41.7122 304.686 -41.7122 298.981C-41.7122 293.276 -37.3754 288.584 -31.8189 288.022C-35.3505 283.696 -35.0994 277.312 -31.0655 273.278C-27.0316 269.244 -20.6474 268.993 -16.3209 272.524C-15.7588 266.968 -11.067 262.631 -5.36221 262.631C0.342564 262.631 5.03444 266.968 5.5965 272.524C9.92302 268.993 16.3072 269.244 20.3411 273.278C24.375 277.312 24.6261 283.696 21.0945 288.022C26.651 288.584 30.9877 293.276 30.9877 298.981C30.9877 304.686 26.651 309.378 21.0945 309.94C24.6261 314.266 24.375 320.65 20.3411 324.684C16.3072 328.718 9.92302 328.969 5.59651 325.438C5.03445 330.994 0.342575 335.331 -5.3622 335.331Z" fill="#F5BD50"/>
<path fill-rule="evenodd" clip-rule="evenodd" d="M17.2168 404.075C16.8915 404.431 16.5573 404.796 16.2084 405.173C16.1623 405.223 16.1117 405.279 16.0565 405.339C15.3685 406.094 13.9763 407.62 12.0001 408.414C10.2672 409.111 8.45816 409.007 6.89828 408.184C5.54056 407.468 4.67125 406.368 4.15155 405.573C3.31564 404.294 2.68576 402.621 2.40933 401.887C2.36167 401.76 2.32451 401.662 2.29862 401.598C1.32678 399.197 -0.0620232 398.826 -0.769949 398.85C-1.5769 398.877 -2.83669 399.445 -3.50274 401.388C-4.10779 403.152 -4.233 405.361 -3.47686 407.651C-3.47686 407.651 -2.39273 410.403 -2.62487 411.995C-2.85701 413.588 -8.70404 415.792 -9.63137 414.04C-10.3845 412.618 -11.3042 410.236 -11.3042 410.236C-12.6466 406.17 -12.4656 402.113 -11.3 398.714C-9.65882 393.928 -5.66875 390.767 -1.04754 390.611C4.44905 390.426 8.39394 394.47 10.2424 399.284C10.2606 399.332 10.2786 399.379 10.2966 399.425C10.5361 399.165 10.7819 398.897 11.0332 398.622C13.234 396.217 15.5437 393.599 18.2311 391.725C19.8877 390.57 22.2807 389.355 25.1752 389.589C26.5133 389.697 27.8005 390.138 28.8973 390.991C29.9699 391.825 30.6202 392.865 31.0159 393.804C31.7327 395.504 31.8032 397.382 31.84 398.365L31.8408 398.385C31.8739 399.267 31.8874 400.171 31.8701 401.089C34.5905 400.239 38.6009 399.497 42.342 401.367C46.3199 403.356 48.1894 407.927 47.1847 411.995C46.4117 415.125 44.3197 417.012 42.8471 418.227C42.1326 418.817 41.4917 419.321 40.9018 419.784C39.9345 420.544 39.1044 421.196 38.3116 421.943C38.4561 421.991 38.5979 422.04 38.7301 422.087C40.932 422.869 43.0863 424.025 44.9788 425.641C46.5471 426.981 47.9956 428.805 48.5722 431.117C49.1838 433.569 48.6833 436.058 47.2193 438.266C44.3698 442.562 38.0537 450 31.8701 450C30.636 450 27.1199 447.676 28.4367 444.738C29.0951 443.27 31.6266 442.128 31.6266 442.128C31.8947 441.909 32.1601 441.693 32.4224 441.479C35.6793 438.822 38.4677 436.548 40.3497 433.71C40.5296 433.439 40.5692 433.28 40.5786 433.231C40.5866 433.189 40.5865 433.161 40.5743 433.112C40.5412 432.979 40.36 432.537 39.6251 431.909C38.6063 431.039 37.367 430.35 35.9707 429.854C35.688 429.754 35.4618 429.683 35.1742 429.593C34.9776 429.532 34.7522 429.462 34.4604 429.367C33.8573 429.171 33.089 428.903 32.3012 428.506C31.6087 428.157 30.3686 427.458 29.5216 426.124C28.5053 424.523 28.4942 422.761 28.9685 421.266C29.6003 419.275 30.8286 417.797 31.7937 416.798C33.1804 415.363 34.8759 414.029 36.2704 412.931C36.7597 412.546 37.212 412.19 37.6009 411.869C38.8407 410.846 39.086 410.408 39.1822 410.019C39.2348 409.806 39.2195 409.521 39.096 409.242C38.9754 408.97 38.8022 408.813 38.6556 408.74C36.3413 407.583 33.4788 409.428 31.2384 410.111C30.5839 410.311 29.5529 410.581 28.4627 410.565C27.4738 410.551 24.9411 410.214 23.8213 407.609C23.1418 406.028 25.8133 398.385 23.5748 398.096C22.2739 397.929 18.1913 403.011 17.2168 404.075Z" fill="#F10000"/>
<path fill-rule="evenodd" clip-rule="evenodd" d="M-19.9636 140.884C-20.2606 137.997 -20.3492 135.211 -20.177 132.317C-20.3119 131.004 -19.3553 129.828 -18.042 129.693C-16.7287 129.558 -15.553 130.515 -15.4181 131.828C-15.0297 133.231 -14.5301 134.544 -14.0207 135.883C-13.8725 136.272 -13.7235 136.664 -13.5761 137.061C-13.3302 137.723 -13.063 138.372 -12.7963 139.02L-12.7953 139.022C-12.7002 139.253 -12.6052 139.484 -12.5112 139.716C-11.6405 139.14 -10.764 138.574 -9.86927 138.048C-8.66845 137.341 -7.4429 136.694 -6.16399 136.171C-4.26456 135.347 -2.0533 136.22 -1.22931 138.12C-0.405327 140.02 -1.27881 142.231 -3.17824 143.055C-4.10798 143.482 -4.98849 144.01 -5.85588 144.568C-6.99167 145.299 -8.09585 146.094 -9.19723 146.887C-9.56534 147.152 -9.93313 147.417 -10.3017 147.679C-9.92366 149.772 -9.64847 151.886 -9.39589 153.996C-9.23417 154.714 -9.07511 155.432 -8.92018 156.151C-5.83533 154.413 -2.67215 152.83 0.606622 151.484C2.50631 150.66 4.71744 151.533 5.54142 153.433C6.36529 155.332 5.49217 157.544 3.59248 158.368C1.81874 159.183 0.100721 160.098 -1.60249 161.044C-3.5724 162.137 -5.4852 163.332 -7.39541 164.537C-7.38457 164.615 -7.37384 164.694 -7.36323 164.772C-7.11079 166.638 -6.90855 168.509 -6.70647 170.379L-6.70643 170.379C-6.34301 173.742 -5.9801 177.1 -5.32669 180.412C-4.8912 182.436 -6.18112 184.433 -8.20567 184.868C-10.2299 185.304 -12.2268 184.014 -12.6624 181.989C-13.6669 177.723 -14.3837 173.391 -14.9479 169.033C-15.2244 169.179 -15.5013 169.325 -15.7782 169.471C-17.022 170.125 -18.2655 170.78 -19.4761 171.496C-20.1018 171.867 -20.7092 172.265 -21.3164 172.663C-21.7637 172.957 -22.211 173.25 -22.6654 173.532C-24.7068 174.888 -26.8026 176.14 -28.9945 177.233C-28.8311 178.441 -28.697 179.653 -28.563 180.863L-28.563 180.863C-28.4672 181.728 -28.3715 182.593 -28.2651 183.456C-28.1386 184.655 -28.1114 185.938 -28.0837 187.244C-28.0519 188.744 -28.0194 190.275 -27.8347 191.745C-27.7242 192.624 -27.5767 193.481 -27.2569 194.262C-26.4329 196.162 -27.3064 198.373 -29.2058 199.197C-31.1055 200.021 -33.3168 199.148 -34.1407 197.248C-34.7646 195.888 -35.15 194.399 -35.4077 192.851C-35.6563 191.358 -35.7512 189.795 -35.8441 188.264C-35.9242 186.946 -36.0028 185.651 -36.177 184.443C-36.253 183.841 -36.3327 183.238 -36.4125 182.636C-36.5023 181.958 -36.5922 181.279 -36.6768 180.6C-36.8423 180.677 -37.0087 180.755 -37.1759 180.833C-38.2263 181.324 -39.3087 181.829 -40.3767 182.233C-41.6949 182.731 -42.9115 183.159 -44.0816 183.255C-45.3637 183.57 -46.6605 182.785 -46.9754 181.503C-47.168 180.718 -46.8551 180.157 -45.3745 178.806C-45.1013 178.557 -41.2632 175.486 -40.9823 175.239C-39.7294 174.138 -38.4756 173.16 -37.3422 172.393C-37.3121 172.376 -37.2821 172.359 -37.2521 172.343C-37.3039 170.798 -37.3662 169.255 -37.5179 167.716C-37.6644 166.228 -37.9036 164.758 -38.1427 163.288L-38.1428 163.287C-38.2281 162.763 -38.3135 162.238 -38.3945 161.713C-38.7249 161.873 -39.0569 162.028 -39.3918 162.177C-40.3004 162.581 -41.0228 162.915 -41.7704 163.261C-42.5994 163.643 -43.4595 164.041 -44.6387 164.565C-45.3743 164.892 -46.0339 165.295 -46.6761 165.687C-47.9525 166.467 -49.1603 167.205 -50.7599 167.22C-51.4183 167.226 -52.116 167.138 -52.4361 167.039C-54.7294 166.33 -53.5506 163.732 -52.4036 162.572C-51.4858 161.645 -49.2242 159.519 -48.7193 159.069L-48.5726 158.948C-46.7715 157.46 -45.0261 156.018 -43.0219 154.904C-41.865 154.261 -40.6415 153.755 -39.3862 153.299C-39.3982 152.903 -39.4053 152.507 -39.4124 152.11L-39.4124 152.11C-39.4299 151.131 -39.4476 150.146 -39.5376 149.14C-39.5981 147.959 -39.554 144.66 -39.4631 143.226C-39.3043 140.721 -37.2153 139.979 -37.1088 139.992C-34.0209 139.874 -33.5603 146.006 -32.8582 148.089C-32.5441 149.021 -32.2356 149.937 -31.9627 150.855C-31.5305 150.697 -31.102 150.53 -30.6778 150.353C-29.8692 150.014 -29.0877 149.619 -28.3134 149.215C-26.8158 148.433 -25.3897 147.544 -23.9575 146.651C-23.1565 146.151 -22.3537 145.651 -21.5354 145.167C-20.8761 144.777 -20.2068 144.401 -19.5342 144.025C-19.7459 143 -19.8523 141.966 -19.9595 140.924L-19.9636 140.884ZM-30.3579 169.109C-28.9724 168.56 -27.5912 168.004 -26.258 167.33C-26.0029 167.192 -25.7465 167.056 -25.4902 166.921C-24.6833 166.494 -23.8759 166.067 -23.1042 165.577C-21.7213 164.7 -20.4168 163.714 -19.1111 162.726C-18.0704 161.939 -17.029 161.152 -15.9464 160.418C-15.8962 160.384 -15.8458 160.35 -15.7954 160.317C-15.9219 158.602 -16.0553 156.889 -16.2567 155.181C-16.5056 154.083 -16.8161 153.001 -17.1518 151.927C-17.7216 152.242 -18.2952 152.547 -18.8753 152.837C-20.3125 153.556 -21.7934 154.151 -23.2754 154.745C-24.3151 155.163 -25.3555 155.58 -26.3818 156.041C-27.4535 156.522 -28.5109 157.036 -29.5725 157.552C-30.0068 157.763 -30.4418 157.974 -30.8787 158.184C-30.8752 158.277 -30.8716 158.371 -30.8681 158.465C-30.8496 158.962 -30.831 159.462 -30.8057 159.964C-30.7918 160.641 -30.7873 161.32 -30.7827 161.998L-30.7827 161.998C-30.7714 163.684 -30.7601 165.371 -30.6045 167.056C-30.541 167.743 -30.4563 168.427 -30.3579 169.109Z" fill="#0098F1"/>
<path d="M135.922 220.623C136.871 221.277 137.898 223.083 135.692 225.316C135.035 225.981 134.92 226.323 134.076 226.896C133.627 227.201 133.157 227.491 132.659 227.738C132.167 227.982 131.662 228.205 131.142 228.377C129.687 228.865 128.07 229.15 126.394 229.276C124.099 229.45 121.704 229.365 119.549 229.165C114.334 228.99 109.426 228.141 104.72 226.571C100.049 225.013 95.5959 222.728 91.2235 219.772C89.268 218.399 87.1831 216.881 85.391 215.144C84.0875 213.881 82.9369 212.502 82.0677 210.994C81.2256 209.532 80.6613 207.993 80.2977 206.42C79.7672 204.125 79.6665 201.76 79.7154 199.49C79.7381 198.339 81.4569 195.632 82.6085 195.655C83.7601 195.677 84.6765 196.631 84.6538 197.782C84.6245 199.407 84.673 201.089 84.9603 202.745C85.2203 204.241 85.6788 205.717 86.4791 207.095C87.161 208.27 88.0754 209.332 89.0945 210.316C90.73 211.895 92.6366 213.268 94.419 214.517C98.3872 217.404 102.464 219.636 106.741 221.272C111.082 222.932 115.62 223.996 120.49 224.413C122.478 224.465 124.683 224.427 126.774 224.106C128.12 223.9 129.406 223.551 130.547 223.054C131.535 222.343 132.417 221.639 133.287 220.828C134.34 219.846 135.413 220.272 135.922 220.623Z" fill="#03A146"/>
<path fill-rule="evenodd" clip-rule="evenodd" d="M131.001 199.82C131.714 200.948 130.267 202.911 129.722 203.9C128.02 206.988 125.832 210.629 122.96 212.751C121.871 213.556 119.04 215.161 117.803 213.679C117.075 212.806 117.739 210.821 118.028 209.906C119.167 206.305 122.015 204.136 124.27 201.179C126.085 198.798 128.999 196.655 131.001 199.82Z" fill="#03A146"/>
<path fill-rule="evenodd" clip-rule="evenodd" d="M110.833 185.926C109.525 185.661 108.206 187.713 107.476 188.575C105.197 191.265 102.575 194.607 101.615 198.047C101.252 199.351 100.761 202.568 102.586 203.196C103.66 203.565 105.28 202.237 106.031 201.641C108.99 199.294 110.002 195.859 111.961 192.7C113.539 190.156 114.503 186.668 110.833 185.926Z" fill="#03A146"/>
<path fill-rule="evenodd" clip-rule="evenodd" d="M-13.8869 10.5888C-15.3665 12.0196 -18.6186 11.1001 -20.7368 11.1001C-25.0465 11.1001 -29.5042 11.3836 -32.7642 14.644C-33.5818 15.4616 -34.1307 16.8739 -34.3751 17.9732C-34.6984 19.4271 -35.1793 20.9852 -34.8047 22.4832C-33.5521 27.4937 -26.7651 29.0044 -24.6028 33.3294C-23.7188 35.0972 -27.936 36.5193 -28.7907 37.0881C-34.1097 40.6255 -34.6593 45.1927 -34.2677 47.9342C-33.5789 52.7553 -29.882 56.7989 -25.0324 57.4917C-21.972 57.9288 -18.8251 56.4966 -16.0119 55.5586C-13.6609 54.7751 -10.1933 51.971 -7.52801 53.3034C-5.13539 54.4999 -2.74567 57.4418 -0.870117 59.3173C0.83585 61.0229 4.85236 60.7337 6.96909 60.4986C8.04915 60.3786 9.4644 59.9472 10.4056 59.3173C18.5366 53.8747 10.3987 47.1275 10.513 46.0012C10.7003 44.1538 14.6076 44.9942 17.3857 44.0681C22.714 42.292 26.6991 36.2868 25.1178 30.752C24.0638 27.0635 20.2368 25.1875 16.9561 24.0941C15.6088 23.645 11.4387 24.1867 10.8352 22.3758C10.483 21.3193 11.332 13.854 11.0988 11.4726C10.2176 2.47809 0.819946 -0.0761616 -5.16323 1.64933C-9.74815 2.97129 -11.9267 8.69304 -13.8869 10.5888Z" fill="#D88D3A"/>
</svg>
