<svg width="63" height="91" viewBox="0 0 63 91" fill="none" xmlns="http://www.w3.org/2000/svg">
<path d="M0.302914 57.504C0.302914 39.5144 14.8864 24.9309 32.876 24.9309C50.8656 24.9309 62.0366 39.5144 62.0366 57.504C62.0366 75.4936 58.5619 90.3604 40.5723 90.3604C22.5827 90.3604 0.302914 75.4936 0.302914 57.504Z" fill="#7F43FF"/>
<path fill-rule="evenodd" clip-rule="evenodd" d="M56.7293 24.728C58.101 24.1138 59.4657 23.5133 60.8212 22.8599C61.9689 22.3057 62.4492 20.9225 61.895 19.7748C61.3408 18.6272 59.9599 18.1468 58.8122 18.701C57.496 19.3361 56.1705 19.918 54.8381 20.5161C53.6743 21.0379 53.1548 22.405 53.6767 23.5688C54.1985 24.7303 55.5655 25.2499 56.7293 24.728Z" fill="#7F43FF"/>
<path fill-rule="evenodd" clip-rule="evenodd" d="M47.6169 16.6644C49.5935 12.3832 51.3532 8.00501 53.2375 3.68457C53.7478 2.51613 53.212 1.15374 52.0435 0.643414C50.8751 0.135399 49.5151 0.668797 49.0048 1.83723C47.132 6.12766 45.3886 10.4758 43.4235 14.727C42.8901 15.8839 43.3957 17.2579 44.5526 17.7913C45.7095 18.327 47.0835 17.8213 47.6169 16.6644Z" fill="#7F43FF"/>
<path fill-rule="evenodd" clip-rule="evenodd" d="M30.8367 14.5539C30.2063 10.6352 29.4651 6.72582 28.8809 2.80024C28.6915 1.54174 27.5162 0.671152 26.2553 0.858194C24.9945 1.04755 24.124 2.22294 24.311 3.48374C24.9022 7.42548 25.6434 11.351 26.2761 15.2882C26.4793 16.5467 27.6639 17.4034 28.9224 17.2002C30.1809 16.9993 31.0399 15.8124 30.8367 14.5539Z" fill="#7F43FF"/>
</svg>
