<svg width="19" height="82" viewBox="0 0 19 82" fill="none" xmlns="http://www.w3.org/2000/svg">
<path fill-rule="evenodd" clip-rule="evenodd" d="M-19.9636 17.8837C-20.2606 14.9971 -20.3492 12.2114 -20.177 9.31741C-20.3119 8.00414 -19.3553 6.82816 -18.042 6.69324C-16.7287 6.55833 -15.553 7.51506 -15.4181 8.82834C-15.0297 10.231 -14.5301 11.5442 -14.0207 12.8827C-13.8725 13.2722 -13.7235 13.6639 -13.5761 14.0606C-13.3302 14.7228 -13.063 15.3719 -12.7963 16.02L-12.7953 16.0225C-12.7002 16.2535 -12.6052 16.4843 -12.5112 16.7156C-11.6405 16.1404 -10.764 15.5737 -9.86927 15.0476C-8.66845 14.3414 -7.4429 13.6937 -6.16399 13.171C-4.26456 12.3471 -2.0533 13.2202 -1.22931 15.1199C-0.405327 17.0196 -1.27881 19.2307 -3.17824 20.0546C-4.10798 20.4815 -4.98849 21.0095 -5.85588 21.5678C-6.99167 22.2988 -8.09585 23.0938 -9.19723 23.8868C-9.56534 24.1518 -9.93313 24.4167 -10.3017 24.6788C-9.92366 26.772 -9.64847 28.8861 -9.39589 30.9959C-9.23417 31.7136 -9.07511 32.4319 -8.92018 33.151C-5.83533 31.4129 -2.67215 29.8303 0.606622 28.4839C2.50631 27.6599 4.71744 28.5334 5.54142 30.4331C6.36529 32.3325 5.49217 34.5438 3.59248 35.3677C1.81874 36.1832 0.100721 37.0981 -1.60249 38.0438C-3.5724 39.1375 -5.4852 40.3324 -7.39541 41.5369C-7.38457 41.6153 -7.37384 41.6937 -7.36323 41.7721C-7.11079 43.6377 -6.90855 45.5092 -6.70647 47.3792L-6.70643 47.3794C-6.34301 50.7422 -5.9801 54.1004 -5.32669 57.4117C-4.8912 59.4359 -6.18112 61.4331 -8.20567 61.8684C-10.2299 62.3039 -12.2268 61.0139 -12.6624 58.9894C-13.6669 54.7232 -14.3837 50.3915 -14.9479 46.0326C-15.2244 46.1791 -15.5013 46.3248 -15.7782 46.4705C-17.022 47.1252 -18.2655 47.7797 -19.4761 48.4963C-20.1018 48.8668 -20.7092 49.2651 -21.3164 49.6633C-21.7637 49.9567 -22.211 50.25 -22.6654 50.532C-24.7068 51.8875 -26.8026 53.1404 -28.9945 54.2327C-28.8311 55.4412 -28.697 56.6526 -28.563 57.8626L-28.563 57.8629C-28.4672 58.7284 -28.3715 59.5931 -28.2651 60.4557C-28.1386 61.6554 -28.1114 62.9381 -28.0837 64.2436C-28.0519 65.7445 -28.0194 67.2755 -27.8347 68.7452C-27.7242 69.6239 -27.5767 70.4809 -27.2569 71.2624C-26.4329 73.1621 -27.3064 75.3733 -29.2058 76.1971C-31.1055 77.0211 -33.3168 76.148 -34.1407 74.2483C-34.7646 72.8881 -35.15 71.3991 -35.4077 69.851C-35.6563 68.3576 -35.7512 66.7952 -35.8441 65.2642C-35.9242 63.9459 -36.0028 62.6508 -36.177 61.4429C-36.253 60.8407 -36.3327 60.2385 -36.4125 59.6358C-36.5023 58.9579 -36.5922 58.2794 -36.6768 57.6C-36.8423 57.6769 -37.0087 57.7547 -37.1759 57.8329C-38.2263 58.3237 -39.3087 58.8295 -40.3767 59.2328C-41.6949 59.7306 -42.9115 60.1586 -44.0816 60.2551C-45.3637 60.5702 -46.6605 59.7851 -46.9754 58.5029C-47.168 57.7184 -46.8551 57.1568 -45.3745 55.8062C-45.1013 55.5569 -41.2632 52.486 -40.9823 52.2389C-39.7294 51.1377 -38.4756 50.1597 -37.3422 49.3927C-37.3121 49.376 -37.2821 49.3593 -37.2521 49.3426C-37.3039 47.7984 -37.3662 46.2547 -37.5179 44.7157C-37.6644 43.2281 -37.9036 41.7578 -38.1427 40.2881L-38.1428 40.2875C-38.2281 39.7629 -38.3135 39.2385 -38.3945 38.7133C-38.7249 38.8725 -39.0569 39.0279 -39.3918 39.177C-40.3004 39.5814 -41.0228 39.9151 -41.7704 40.2605C-42.5994 40.6435 -43.4595 41.0408 -44.6387 41.5648C-45.3743 41.8916 -46.0339 42.2947 -46.6761 42.6872C-47.9525 43.4672 -49.1603 44.2053 -50.7599 44.2198C-51.4183 44.2258 -52.116 44.138 -52.4361 44.0391C-54.7294 43.3305 -53.5506 40.7325 -52.4036 39.5722C-51.4858 38.6451 -49.2242 36.5193 -48.7193 36.0689L-48.5726 35.9477C-46.7715 34.4596 -45.0261 33.0176 -43.0219 31.904C-41.865 31.2613 -40.6415 30.755 -39.3862 30.299C-39.3982 29.9031 -39.4053 29.507 -39.4124 29.1099L-39.4124 29.1096C-39.4299 28.1313 -39.4476 27.1462 -39.5376 26.1402C-39.5981 24.9591 -39.554 21.6601 -39.4631 20.2255C-39.3043 17.7215 -37.2153 16.9785 -37.1088 16.9916C-34.0209 16.8738 -33.5603 23.0058 -32.8582 25.0891C-32.5441 26.0212 -32.2356 26.9367 -31.9627 27.8549C-31.5305 27.6966 -31.102 27.5302 -30.6778 27.3527C-29.8692 27.0143 -29.0877 26.619 -28.3134 26.2149C-26.8158 25.4329 -25.3897 24.5436 -23.9575 23.6506C-23.1565 23.1512 -22.3537 22.6506 -21.5354 22.1669C-20.8761 21.7771 -20.2068 21.4009 -19.5342 21.025C-19.7459 19.9999 -19.8523 18.9662 -19.9595 17.9236L-19.9636 17.8837ZM-30.3579 46.1087C-28.9724 45.56 -27.5912 45.0038 -26.258 44.3296C-26.0029 44.192 -25.7465 44.0564 -25.4902 43.9207C-24.6833 43.4938 -23.8759 43.0667 -23.1042 42.5772C-21.7213 41.7003 -20.4168 40.7137 -19.1111 39.7263C-18.0704 38.9392 -17.029 38.1516 -15.9464 37.4184C-15.8962 37.3844 -15.8458 37.3504 -15.7954 37.3166C-15.9219 35.6017 -16.0553 33.8893 -16.2567 32.1809C-16.5056 31.0825 -16.8161 30.0013 -17.1518 28.9268C-17.7216 29.2419 -18.2952 29.5467 -18.8753 29.837C-20.3125 30.5563 -21.7934 31.1505 -23.2754 31.7453C-24.3151 32.1625 -25.3555 32.58 -26.3818 33.0411C-27.4535 33.5224 -28.5109 34.0361 -29.5725 34.5518C-30.0068 34.7627 -30.4418 34.974 -30.8787 35.1836C-30.8752 35.2773 -30.8716 35.3712 -30.8681 35.4651C-30.8496 35.9624 -30.831 36.462 -30.8057 36.9635C-30.7918 37.6415 -30.7873 38.3196 -30.7827 38.9978L-30.7827 38.9981C-30.7714 40.6843 -30.7601 42.3709 -30.6045 44.0559C-30.541 44.7429 -30.4563 45.4268 -30.3579 46.1087Z" fill="#0098F1"/>
</svg>
