<svg width="87" height="87" viewBox="0 0 87 87" fill="none" xmlns="http://www.w3.org/2000/svg">
<path d="M68.9224 55.6234C69.8709 56.2768 70.8978 58.0825 68.6915 60.3163C68.0354 60.9805 67.9196 61.3226 67.0755 61.8961C66.6266 62.201 66.1568 62.4912 65.6591 62.7379C65.167 62.9819 64.6624 63.2048 64.1415 63.3771C62.6866 63.8655 61.07 64.1499 59.3942 64.2764C57.0986 64.4495 54.7039 64.3645 52.5486 64.1646C47.3344 63.9902 42.4262 63.141 37.7198 61.571C33.049 60.0129 28.5959 57.7276 24.2235 54.7723C22.268 53.3995 20.1831 51.8806 18.391 50.1438C17.0875 48.8807 15.9369 47.5023 15.0677 45.9943C14.2256 44.5324 13.6613 42.9931 13.2977 41.4204C12.7672 39.1252 12.6665 36.7601 12.7154 34.4902C12.7381 33.3387 14.4569 30.6318 15.6085 30.6546C16.7601 30.6773 17.6765 31.6307 17.6538 32.7823C17.6245 34.407 17.673 36.0894 17.9603 37.7447C18.2203 39.2415 18.6788 40.717 19.4791 42.0951C20.161 43.2699 21.0754 44.3319 22.0945 45.3158C23.73 46.8947 25.6366 48.2682 27.419 49.5172C31.3872 52.4039 35.4645 54.6363 39.7408 56.2715C44.0824 57.9318 48.6203 58.996 53.4903 59.413C55.4785 59.4653 57.6827 59.4266 59.7736 59.106C61.1204 58.8995 62.4063 58.5515 63.5468 58.054C64.5352 57.3434 65.4174 56.639 66.2868 55.828C67.3401 54.8462 68.4128 55.2723 68.9224 55.6234Z" fill="#03A146"/>
<path fill-rule="evenodd" clip-rule="evenodd" d="M64.001 34.8198C64.7142 35.9476 63.2667 37.9107 62.7215 38.9004C61.0203 41.9882 58.832 45.6289 55.96 47.7511C54.8712 48.5556 52.04 50.1606 50.8031 48.6787C50.0751 47.8065 50.7389 45.8205 51.0283 44.9056C52.1672 41.3047 55.0155 39.1359 57.2696 36.1789C59.0845 33.7983 61.9994 31.6547 64.001 34.8198Z" fill="#03A146"/>
<path fill-rule="evenodd" clip-rule="evenodd" d="M43.8326 20.9258C42.5247 20.6613 41.2061 22.7132 40.4757 23.5753C38.1968 26.2651 35.5748 29.6071 34.6153 33.0468C34.2515 34.3508 33.7607 37.5681 35.5861 38.1957C36.6605 38.5651 38.2795 37.2373 39.0313 36.6408C41.99 34.2936 43.0015 30.8595 44.9612 27.6996C46.5388 25.1556 47.5031 21.6682 43.8326 20.9258Z" fill="#03A146"/>
</svg>
