<svg width="31" height="74" viewBox="0 0 31 74" fill="none" xmlns="http://www.w3.org/2000/svg">
<path d="M-5.3622 73.331C-11.067 73.331 -15.7589 68.9943 -16.3209 63.4377C-20.6474 66.9694 -27.0316 66.7182 -31.0655 62.6843C-35.0994 58.6505 -35.3505 52.2663 -31.8189 47.9398C-37.3754 47.3777 -41.7122 42.6858 -41.7122 36.9811C-41.7122 31.2763 -37.3754 26.5844 -31.8189 26.0223C-35.3505 21.6958 -35.0994 15.3116 -31.0655 11.2778C-27.0316 7.24387 -20.6474 6.99275 -16.3209 10.5244C-15.7588 4.96783 -11.067 0.631104 -5.36221 0.631104C0.342564 0.631103 5.03444 4.96783 5.5965 10.5244C9.92302 6.99274 16.3072 7.24387 20.3411 11.2778C24.375 15.3116 24.6261 21.6958 21.0945 26.0223C26.651 26.5844 30.9877 31.2763 30.9877 36.9811C30.9877 42.6858 26.651 47.3777 21.0945 47.9398C24.6261 52.2663 24.375 58.6505 20.3411 62.6844C16.3072 66.7182 9.92302 66.9694 5.59651 63.4377C5.03445 68.9943 0.342575 73.331 -5.3622 73.331Z" fill="#F5BD50"/>
</svg>
