<svg width="26" height="62" viewBox="0 0 26 62" fill="none" xmlns="http://www.w3.org/2000/svg">
<path fill-rule="evenodd" clip-rule="evenodd" d="M-13.8869 10.5888C-15.3665 12.0196 -18.6186 11.1001 -20.7368 11.1001C-25.0465 11.1001 -29.5042 11.3836 -32.7642 14.644C-33.5818 15.4616 -34.1307 16.8739 -34.3751 17.9732C-34.6984 19.4271 -35.1793 20.9852 -34.8047 22.4832C-33.5521 27.4937 -26.7651 29.0044 -24.6028 33.3294C-23.7188 35.0972 -27.936 36.5193 -28.7907 37.0881C-34.1097 40.6255 -34.6593 45.1927 -34.2677 47.9342C-33.5789 52.7553 -29.882 56.7989 -25.0324 57.4917C-21.972 57.9288 -18.8251 56.4966 -16.0119 55.5586C-13.6609 54.7751 -10.1933 51.971 -7.52801 53.3034C-5.13539 54.4999 -2.74567 57.4418 -0.870117 59.3173C0.83585 61.0229 4.85236 60.7337 6.96909 60.4986C8.04915 60.3786 9.4644 59.9472 10.4056 59.3173C18.5366 53.8747 10.3987 47.1275 10.513 46.0012C10.7003 44.1538 14.6076 44.9942 17.3857 44.0681C22.714 42.292 26.6991 36.2868 25.1178 30.752C24.0638 27.0635 20.2368 25.1875 16.9561 24.0941C15.6088 23.645 11.4387 24.1867 10.8352 22.3758C10.483 21.3193 11.332 13.854 11.0988 11.4726C10.2176 2.47809 0.819946 -0.0761616 -5.16323 1.64933C-9.74815 2.97129 -11.9267 8.69304 -13.8869 10.5888Z" fill="#D88D3A"/>
</svg>
