<svg width="49" height="61" viewBox="0 0 49 61" fill="none" xmlns="http://www.w3.org/2000/svg">
<path fill-rule="evenodd" clip-rule="evenodd" d="M17.2168 15.0755C16.8915 15.4308 16.5573 15.796 16.2084 16.1732C16.1623 16.223 16.1117 16.2786 16.0565 16.3391C15.3685 17.0936 13.9763 18.6204 12.0001 19.4145C10.2672 20.1107 8.45816 20.0066 6.89828 19.1841C5.54056 18.4682 4.67125 17.3681 4.15155 16.573C3.31564 15.294 2.68576 13.621 2.40933 12.8868C2.36167 12.7602 2.32451 12.6615 2.29862 12.5976C1.32678 10.1975 -0.0620232 9.8257 -0.769949 9.84956C-1.5769 9.87675 -2.83669 10.4454 -3.50274 12.3877C-4.10779 14.1521 -4.233 16.3612 -3.47686 18.6512C-3.47686 18.6512 -2.39273 21.4026 -2.62487 22.9953C-2.85701 24.588 -8.70404 26.7918 -9.63137 25.0402C-10.3845 23.6177 -11.3042 21.2357 -11.3042 21.2357C-12.6466 17.1699 -12.4656 13.1131 -11.3 9.71385C-9.65882 4.92812 -5.66875 1.767 -1.04754 1.61128C4.44905 1.42608 8.39394 5.47001 10.2424 10.2844C10.2606 10.3318 10.2786 10.3786 10.2966 10.425C10.5361 10.1652 10.7819 9.89654 11.0332 9.62188C13.234 7.21698 15.5437 4.59949 18.2311 2.72529C19.8877 1.57003 22.2807 0.354666 25.1752 0.58878C26.5133 0.697008 27.8005 1.13805 28.8973 1.99073C29.9699 2.82461 30.6202 3.865 31.0159 4.80378C31.7327 6.50414 31.8032 8.38183 31.84 9.36528L31.8408 9.38495C31.8739 10.2667 31.8874 11.1711 31.8701 12.0886C34.5905 11.2393 38.6009 10.4969 42.342 12.3674C46.3199 14.3564 48.1894 18.9275 47.1847 22.9953C46.4117 26.125 44.3197 28.0122 42.8471 29.2273C42.1326 29.8169 41.4917 30.3205 40.9018 30.784C39.9345 31.544 39.1044 32.1963 38.3116 32.9435C38.4561 32.9914 38.5979 33.0396 38.7301 33.0866C40.932 33.8689 43.0863 35.0248 44.9788 36.6413C46.5471 37.9809 47.9956 39.8052 48.5722 42.1171C49.1838 44.5693 48.6833 47.058 47.2193 49.2656C44.3698 53.5625 38.0537 61 31.8701 61C30.636 61 27.1199 58.6758 28.4367 55.7383C29.0951 54.2696 31.6266 53.1285 31.6266 53.1285C31.8947 52.909 32.1601 52.6926 32.4224 52.4786C35.6793 49.8222 38.4677 47.5478 40.3497 44.7099C40.5296 44.4386 40.5692 44.2801 40.5786 44.2311C40.5866 44.1892 40.5865 44.161 40.5743 44.1118C40.5412 43.9791 40.36 43.5368 39.6251 42.909C38.6063 42.0388 37.367 41.35 35.9707 40.8539C35.688 40.7535 35.4618 40.683 35.1742 40.5935C34.9776 40.5322 34.7522 40.462 34.4604 40.3672C33.8573 40.1711 33.089 39.9029 32.3012 39.5058C31.6087 39.1567 30.3686 38.4578 29.5216 37.1238C28.5053 35.5229 28.4942 33.7609 28.9685 32.2663C29.6003 30.275 30.8286 28.7966 31.7937 27.7979C33.1804 26.3631 34.8759 25.0288 36.2704 23.9313C36.7597 23.5462 37.212 23.1903 37.6009 22.8694C38.8407 21.8463 39.086 21.4084 39.1822 21.0188C39.2348 20.8057 39.2195 20.5208 39.096 20.2422C38.9754 19.97 38.8022 19.8134 38.6556 19.7401C36.3413 18.583 33.4788 20.4276 31.2384 21.111C30.5839 21.3106 29.5529 21.5808 28.4627 21.565C27.4738 21.5507 24.9411 21.2136 23.8213 18.6089C23.1418 17.0282 25.8133 9.38495 23.5748 9.09639C22.2739 8.92869 18.1913 14.0109 17.2168 15.0755Z" fill="#F10000"/>
</svg>
