<svg width="81" height="80" viewBox="0 0 81 80" fill="none" xmlns="http://www.w3.org/2000/svg">
<path d="M23.5202 78.6405L23.6029 78.8293L23.7917 78.7467L65.3242 60.5693C73.7695 56.8731 77.6194 47.0305 73.9232 38.5852L64.0083 15.9311C60.3121 7.48579 50.4695 3.6359 42.0242 7.3321L15.5944 18.8995C7.14907 22.5957 3.29917 32.4383 6.99537 40.8836L23.5202 78.6405Z" fill="#750FF7"/>
<path d="M23.5202 78.6405L23.6029 78.8293L23.7917 78.7467L65.3242 60.5693C73.7695 56.8731 77.6194 47.0305 73.9232 38.5852L64.0083 15.9311C60.3121 7.48579 50.4695 3.6359 42.0242 7.3321L15.5944 18.8995C7.14907 22.5957 3.29917 32.4383 6.99537 40.8836L23.5202 78.6405Z" stroke="white" stroke-width="0.412147"/>
</svg>
