<svg width="170" height="43" viewBox="0 0 170 43" fill="none" xmlns="http://www.w3.org/2000/svg">
<g clip-path="url(#clip0_23_631)">
<path fill-rule="evenodd" clip-rule="evenodd" d="M40.0759 18.1102L27.8004 16.6624L22.4549 0.227295L17.1737 16.5618H0L13.8858 26.6823L8.57183 42.9519L22.5725 32.7427L33.3581 38.8565L22.5549 28.9074L14.5252 34.7549L17.5565 25.459L9.67336 19.6823L19.3934 19.694L22.49 10.3625L25.6634 19.8005L40.0759 18.1102Z" fill="url(#paint0_linear_23_631)"/>
</g>
<path d="M56.808 29.5H53.568V15.58H48.96V12.7H61.44V15.58H56.808V29.5ZM74.2226 23.356C74.2226 23.716 74.1986 24.1 74.1746 24.484H66.0626C66.1106 25.828 67.1666 27.22 68.7986 27.22H68.9426C70.1426 27.22 70.8626 26.524 71.0786 25.708H74.1746C73.5986 28.06 71.7506 29.74 68.7506 29.74C65.7506 29.74 63.0386 27.46 63.0386 23.5C63.0386 19.9 65.2466 17.26 68.7986 17.26C72.3986 17.26 74.2226 19.876 74.2226 23.356ZM68.7746 19.78H68.6306C67.3106 19.78 66.1586 20.764 66.0626 22.156H71.1986C71.1746 21.028 70.3586 19.78 68.7746 19.78ZM82.2533 29.74C79.0133 29.74 76.4933 27.34 76.4933 23.5C76.4933 19.66 79.0133 17.26 82.2533 17.26C85.3733 17.26 87.4132 18.7 87.6533 21.7H84.5333C84.3413 20.524 83.6453 19.78 82.3253 19.78H82.1813C80.3813 19.78 79.6133 21.46 79.6133 23.5C79.6133 25.54 80.3813 27.22 82.1813 27.22H82.3253C83.6453 27.22 84.3413 26.476 84.5333 25.3H87.6533C87.4132 28.3 85.3733 29.74 82.2533 29.74ZM96.8359 17.26C99.7159 17.26 101.012 19.18 101.012 21.82V29.5H97.8919V22.18C97.8919 20.62 97.1959 19.78 95.9959 19.78H95.8039C94.3639 19.78 93.2119 21.148 93.2119 22.828V29.5H90.0919V12.7H93.2119V19.252C93.9319 18.052 95.2759 17.26 96.8359 17.26ZM108.947 29.74C105.707 29.74 103.762 28.18 103.762 25.54H106.955C106.955 26.62 107.77 27.34 108.971 27.34H109.162C110.123 27.34 110.747 26.884 110.747 26.164C110.747 25.54 110.387 25.18 109.523 24.964L107.963 24.58C105.442 23.956 104.242 22.9 104.242 20.956C104.242 18.796 106.091 17.26 109.091 17.26C112.211 17.26 113.987 18.82 113.987 21.46H110.867C110.747 20.308 110.147 19.66 109.067 19.66H108.875C108.035 19.66 107.363 20.116 107.363 20.836C107.363 21.484 107.915 21.82 108.899 22.06L110.507 22.468C112.811 23.044 113.867 24.148 113.867 26.044C113.867 28.084 112.187 29.74 108.947 29.74ZM127.993 29.5H123.241C121.201 29.5 120.121 28.42 120.121 26.38V20.02H116.401V17.5H120.121V13.612H123.241V17.5H127.465V20.02H123.241V25.54C123.241 26.62 123.481 26.86 124.561 26.86H127.993V29.5ZM140.824 21.58V26.86C140.824 27.58 140.824 28.66 140.944 29.5H138.016C137.944 29.14 137.896 28.588 137.872 28.036C137.152 29.068 135.88 29.74 134.32 29.74C132.16 29.74 130.384 28.372 130.384 26.212C130.384 23.62 132.4 22.468 134.776 22.252L137.8 21.988V21.7C137.8 20.62 137.056 19.78 135.856 19.78H135.712C134.512 19.78 133.816 20.524 133.744 21.22H130.624C130.864 18.964 132.784 17.26 135.784 17.26C138.784 17.26 140.824 18.772 140.824 21.58ZM134.968 27.22H135.088C136.528 27.22 137.8 26.164 137.8 24.604V24.268L135.208 24.532C134.416 24.604 133.456 25.012 133.456 25.996C133.456 26.74 134.104 27.22 134.968 27.22ZM147.87 29.5H144.75V17.5H147.87V19.66C148.422 18.1 149.67 17.38 151.758 17.38H154.422V20.14H151.542C149.286 20.14 147.87 21.22 147.87 23.74V29.5ZM162.669 29.74C159.429 29.74 157.485 28.18 157.485 25.54H160.677C160.677 26.62 161.493 27.34 162.693 27.34H162.885C163.845 27.34 164.469 26.884 164.469 26.164C164.469 25.54 164.109 25.18 163.245 24.964L161.685 24.58C159.165 23.956 157.965 22.9 157.965 20.956C157.965 18.796 159.813 17.26 162.813 17.26C165.933 17.26 167.709 18.82 167.709 21.46H164.589C164.469 20.308 163.869 19.66 162.789 19.66H162.597C161.757 19.66 161.085 20.116 161.085 20.836C161.085 21.484 161.637 21.82 162.621 22.06L164.229 22.468C166.533 23.044 167.589 24.148 167.589 26.044C167.589 28.084 165.909 29.74 162.669 29.74Z" fill="black"/>
<defs>
<linearGradient id="paint0_linear_23_631" x1="40.7381" y1="42.2897" x2="-0.662192" y2="0.889489" gradientUnits="userSpaceOnUse">
<stop stop-color="#670FF7"/>
<stop offset="1" stop-color="#7F43FF"/>
</linearGradient>
<clipPath id="clip0_23_631">
<rect width="40" height="42.5455" fill="white" transform="translate(0 0.227295)"/>
</clipPath>
</defs>
</svg>
