<svg width="154" height="21" viewBox="0 0 154 21" fill="none" xmlns="http://www.w3.org/2000/svg">
<line x1="0.5" y1="9.53638" x2="48.5" y2="9.53638" stroke="#A4A4A4"/>
<path d="M65.476 8.43638C65.428 11.6364 67.908 14.3084 71.22 14.2604C74.532 14.3084 77.028 11.6364 76.98 8.43638C77.028 5.23638 74.532 2.56438 71.22 2.61238C67.908 2.56438 65.428 5.23638 65.476 8.43638ZM75.332 8.43638C75.332 10.9484 73.636 12.7884 71.22 12.7884C68.82 12.7884 67.124 10.9484 67.124 8.43638C67.124 5.92438 68.82 4.08438 71.22 4.08438C73.636 4.08438 75.332 5.92438 75.332 8.43638ZM86.4011 14.0364H88.2891L84.6411 9.65238C86.8011 9.50838 88.0331 8.29238 88.0331 6.29238C88.0331 4.13238 86.6091 2.83638 84.2251 2.83638H79.5531V14.0364H81.1211V9.66838H82.8171L86.4011 14.0364ZM81.1211 4.27638H84.0971C85.6971 4.27638 86.3851 4.90038 86.3851 6.29238C86.3851 7.65238 85.7131 8.26038 84.0971 8.26038H81.1211V4.27638Z" fill="#A4A4A4"/>
<line x1="105.5" y1="9.53638" x2="153.5" y2="9.53638" stroke="#A4A4A4"/>
</svg>
