<svg width="577" height="577" viewBox="0 0 577 577" fill="none" xmlns="http://www.w3.org/2000/svg">
<path d="M481.127 342.048C488.467 345.454 497.709 356.749 485.065 374.823C481.305 380.198 480.906 382.703 475.737 387.671C472.988 390.313 470.076 392.877 466.921 395.173C463.8 397.444 460.569 399.583 457.164 401.391C447.663 406.49 436.803 410.368 425.345 413.221C409.651 417.129 392.965 419.366 377.802 420.525C341.483 425.47 306.487 425.38 272.038 420.06C237.85 414.781 204.312 404.208 170.542 388.899C155.378 381.698 139.146 373.639 124.685 363.725C114.166 356.514 104.571 348.326 96.7715 338.907C89.2137 329.776 83.489 319.781 79.1155 309.317C72.7327 294.047 69.2441 277.785 66.9043 262.007C65.7028 254.005 74.4131 233.229 82.4161 232.027C90.4183 230.826 97.8906 236.348 99.0919 244.35C100.807 255.638 103.128 267.233 107.071 278.358C110.637 288.418 115.554 298.096 122.723 306.696C128.832 314.028 136.418 320.304 144.638 325.916C157.828 334.922 172.654 342.185 186.472 348.732C217.362 364.042 248.235 374.692 279.782 380.972C311.811 387.347 344.496 389.363 378.717 386.505C392.549 384.521 407.769 381.652 421.873 376.964C430.956 373.945 439.452 370.017 446.764 365.225C452.771 359.138 458.05 353.218 463.114 346.575C469.251 338.532 477.183 340.218 481.127 342.048Z" fill="#F10000" fill-opacity="0.2"/>
<path fill-rule="evenodd" clip-rule="evenodd" d="M422.493 203.771C428.763 210.741 421.055 226.045 418.447 233.543C410.308 256.936 399.448 284.734 382.061 302.821C375.469 309.678 357.754 324.135 347.439 315.33C341.368 310.149 343.622 295.611 344.546 288.933C348.185 262.649 365.353 244.267 377.476 221.128C387.236 202.498 404.895 184.212 422.493 203.771Z" fill="#F10000" fill-opacity="0.2"/>
<path fill-rule="evenodd" clip-rule="evenodd" d="M266.417 131.343C257.046 131.054 250.335 146.821 246.294 153.654C233.684 174.973 219.468 201.213 216.881 226.168C215.901 235.628 216.298 258.49 229.682 260.683C237.558 261.974 247.205 250.867 251.708 245.849C269.43 226.1 272.383 201.123 282.227 176.925C290.151 157.444 292.714 132.153 266.417 131.343Z" fill="#F10000" fill-opacity="0.2"/>
</svg>
